<svg xmlns="http://www.w3.org/2000/svg" version="1.1" xmlns:xlink="http://www.w3.org/1999/xlink" xmlns:svgjs="http://svgjs.dev/svgjs"  width="308.7612359841165"
   height="304.915625" viewBox="0 0 1000 702"><g transform="matrix(1,0,0,1,-0.6022234427987883,0.5786088633582267)"><svg viewBox="0 0 396 278" data-background-color="#ffffff" preserveAspectRatio="xMidYMid meet" height="702" width="1000" xmlns="http://www.w3.org/2000/svg" xmlns:xlink="http://www.w3.org/1999/xlink"><g id="tight-bounds" transform="matrix(1,0,0,1,0.23848048334832583,-0.22833183752342734)"><svg viewBox="0 0 395.52 278.4562369479643" height="278.4562369479643" width="395.52"><g><svg viewBox="0 0 395.52 278.4562369479643" height="278.4562369479643" width="395.52"><g><svg viewBox="0 0 395.52 278.4562369479643" height="278.4562369479643" width="395.52"><g id="textblocktransform"><svg viewBox="0 0 395.52 278.4562369479643" height="278.4562369479643" width="395.52" id="textblock"><g><svg viewBox="0 0 395.52 278.4562369479643" height="278.4562369479643" width="395.52"><g transform="matrix(1,0,0,1,0,0)"><svg width="395.52" viewBox="28.124353408813477 -7.273917198181152 40.740333557128906 28.682239532470703" height="278.4562369479643" data-palette-color="#fce44d"><path d="M41.852 21.274v0c-2.292 0.314-4.4 0.078-6.325-0.708-1.93-0.778-3.532-2.032-4.805-3.762-1.274-1.736-2.085-3.873-2.433-6.409v0c-0.349-2.543-0.143-4.822 0.617-6.837 0.761-2.009 1.966-3.647 3.616-4.917 1.643-1.268 3.61-2.059 5.902-2.373v0c2.285-0.313 4.393-0.081 6.323 0.697 1.924 0.779 3.522 2.034 4.796 3.764 1.281 1.735 2.096 3.875 2.444 6.417v0c0.348 2.536 0.138 4.812-0.628 6.829-0.761 2.009-1.963 3.647-3.606 4.915-1.649 1.276-3.616 2.07-5.901 2.384zM41.419 18.113v0c1.843-0.253 3.325-0.88 4.445-1.881 1.121-1.002 1.898-2.252 2.332-3.751 0.427-1.499 0.522-3.116 0.284-4.854v0c-0.239-1.744-0.766-3.28-1.581-4.608-0.821-1.327-1.906-2.323-3.255-2.985-1.348-0.656-2.944-0.858-4.787-0.606v0c-1.843 0.253-3.328 0.877-4.457 1.873-1.121 1.002-1.895 2.252-2.322 3.75-0.434 1.499-0.531 3.121-0.292 4.865v0c0.238 1.737 0.768 3.269 1.589 4.596 0.815 1.328 1.897 2.324 3.246 2.987 1.356 0.662 2.955 0.867 4.798 0.614zM59.553 3.724l1.498 2.576-8.99 5.228-1.499-2.576zM65.874 11.072l-17.026-14.438 0.838-0.487 4.137 21.933-2.999 1.744-4.681-25.353 3-1.745 19.722 16.606z" opacity="1" transform="matrix(1,0,0,1,0,0)" fill="#fce44d" class="wordmark-text-0" data-fill-palette-color="primary" id="text-0"></path></svg></g></svg></g></svg></g></svg></g><g></g></svg></g><defs></defs></svg><rect width="395.52" height="278.4562369479643" fill="none" stroke="none" visibility="hidden"></rect></g></svg></g></svg>
